<svg xmlns="http://www.w3.org/2000/svg" viewBox="0 0 800 1000" preserveAspectRatio="xMidYMid slice">
  <defs>
    <linearGradient id="g1" x1="0" y1="0" x2="1" y2="1">
      <stop offset="0%" stop-color="#dfeefa"/>
      <stop offset="55%" stop-color="#f1f8fc"/>
      <stop offset="100%" stop-color="#fdf2eb"/>
    </linearGradient>
    <linearGradient id="g1b" x1="0" y1="0" x2="0" y2="1">
      <stop offset="0%" stop-color="rgba(255,255,255,0.9)"/>
      <stop offset="100%" stop-color="rgba(255,255,255,0.2)"/>
    </linearGradient>
    <filter id="b1"><feGaussianBlur stdDeviation="40"/></filter>
  </defs>
  <rect width="800" height="1000" fill="url(#g1)"/>
  <circle cx="640" cy="180" r="200" fill="#bdd9ec" opacity="0.55" filter="url(#b1)"/>
  <circle cx="180" cy="780" r="220" fill="#fbd9c4" opacity="0.55" filter="url(#b1)"/>
  <rect x="120" y="220" width="560" height="660" rx="24" fill="url(#g1b)" opacity="0.85"/>
  <rect x="180" y="280" width="220" height="540" rx="6" fill="rgba(255,255,255,0.85)"/>
  <rect x="180" y="280" width="220" height="540" rx="6" fill="none" stroke="rgba(43,76,98,0.18)" stroke-width="2"/>
  <line x1="290" y1="280" x2="290" y2="820" stroke="rgba(43,76,98,0.12)" stroke-width="2"/>
  <line x1="180" y1="550" x2="400" y2="550" stroke="rgba(43,76,98,0.12)" stroke-width="2"/>
  <rect x="430" y="450" width="190" height="280" rx="12" fill="rgba(168,216,185,0.35)"/>
  <path d="M450 730 Q 525 470 600 730 Z" fill="rgba(91,168,214,0.4)"/>
  <rect x="430" y="730" width="190" height="40" rx="6" fill="rgba(43,76,98,0.45)"/>
  <rect x="180" y="850" width="440" height="20" rx="4" fill="rgba(43,76,98,0.18)"/>
</svg>
