<svg xmlns="http://www.w3.org/2000/svg" viewBox="0 0 800 1000" preserveAspectRatio="xMidYMid slice">
  <defs>
    <linearGradient id="g4" x1="0" y1="0" x2="1" y2="1">
      <stop offset="0%" stop-color="#dfeefa"/>
      <stop offset="50%" stop-color="#eef7f1"/>
      <stop offset="100%" stop-color="#f7fbf6"/>
    </linearGradient>
    <filter id="b4"><feGaussianBlur stdDeviation="36"/></filter>
  </defs>
  <rect width="800" height="1000" fill="url(#g4)"/>
  <circle cx="160" cy="160" r="200" fill="#bdd9ec" opacity="0.5" filter="url(#b4)"/>
  <circle cx="700" cy="900" r="220" fill="#cfe6d8" opacity="0.55" filter="url(#b4)"/>
  <rect x="60" y="600" width="680" height="380" rx="0" fill="rgba(43,76,98,0.06)"/>
  <rect x="0" y="980" width="800" height="20" fill="rgba(43,76,98,0.12)"/>
  <g transform="translate(180 360)">
    <rect x="0" y="0" width="120" height="280" rx="6" fill="rgba(255,255,255,0.92)"/>
    <rect x="0" y="0" width="120" height="280" rx="6" fill="none" stroke="rgba(43,76,98,0.18)" stroke-width="2"/>
    <rect x="20" y="20" width="80" height="40" rx="3" fill="rgba(91,168,214,0.5)"/>
    <rect x="20" y="80" width="80" height="40" rx="3" fill="rgba(168,216,185,0.5)"/>
    <rect x="20" y="140" width="80" height="40" rx="3" fill="rgba(255,189,154,0.5)"/>
    <rect x="20" y="200" width="80" height="40" rx="3" fill="rgba(91,168,214,0.5)"/>
  </g>
  <g transform="translate(360 320)">
    <rect x="0" y="0" width="280" height="320" rx="12" fill="rgba(255,255,255,0.95)"/>
    <rect x="0" y="0" width="280" height="320" rx="12" fill="none" stroke="rgba(43,76,98,0.18)" stroke-width="2"/>
    <rect x="0" y="0" width="280" height="44" rx="12" fill="rgba(43,76,98,0.55)"/>
    <circle cx="22" cy="22" r="6" fill="rgba(255,189,154,0.95)"/>
    <circle cx="44" cy="22" r="6" fill="rgba(168,216,185,0.95)"/>
    <circle cx="66" cy="22" r="6" fill="rgba(91,168,214,0.95)"/>
    <rect x="20" y="70" width="170" height="14" rx="4" fill="rgba(43,76,98,0.5)"/>
    <rect x="20" y="100" width="240" height="6" rx="3" fill="rgba(43,76,98,0.15)"/>
    <rect x="20" y="116" width="220" height="6" rx="3" fill="rgba(43,76,98,0.15)"/>
    <rect x="20" y="132" width="200" height="6" rx="3" fill="rgba(43,76,98,0.15)"/>
    <rect x="20" y="170" width="240" height="80" rx="8" fill="rgba(91,168,214,0.18)"/>
    <rect x="20" y="270" width="100" height="32" rx="6" fill="rgba(91,168,214,0.85)"/>
  </g>
</svg>
