<svg xmlns="http://www.w3.org/2000/svg" viewBox="0 0 800 1000" preserveAspectRatio="xMidYMid slice">
  <defs>
    <linearGradient id="g3" x1="0" y1="0" x2="1" y2="1">
      <stop offset="0%" stop-color="#fdf2eb"/>
      <stop offset="50%" stop-color="#fbfaf5"/>
      <stop offset="100%" stop-color="#dfeefa"/>
    </linearGradient>
    <filter id="b3"><feGaussianBlur stdDeviation="36"/></filter>
  </defs>
  <rect width="800" height="1000" fill="url(#g3)"/>
  <circle cx="700" cy="220" r="220" fill="#fbd9c4" opacity="0.5" filter="url(#b3)"/>
  <circle cx="160" cy="820" r="220" fill="#bdd9ec" opacity="0.45" filter="url(#b3)"/>
  <rect x="80" y="700" width="640" height="240" rx="14" fill="rgba(255,255,255,0.85)"/>
  <rect x="80" y="700" width="640" height="240" rx="14" fill="none" stroke="rgba(43,76,98,0.12)" stroke-width="2"/>
  <rect x="120" y="740" width="220" height="14" rx="4" fill="rgba(43,76,98,0.55)"/>
  <rect x="120" y="770" width="380" height="6" rx="3" fill="rgba(43,76,98,0.18)"/>
  <rect x="120" y="786" width="320" height="6" rx="3" fill="rgba(43,76,98,0.18)"/>
  <rect x="120" y="802" width="280" height="6" rx="3" fill="rgba(43,76,98,0.18)"/>
  <rect x="120" y="850" width="120" height="44" rx="22" fill="rgba(91,168,214,0.85)"/>
  <rect x="142" y="864" width="76" height="6" rx="3" fill="rgba(255,255,255,0.95)"/>
  <rect x="146" y="876" width="68" height="4" rx="2" fill="rgba(255,255,255,0.7)"/>
  <g transform="translate(540 740)">
    <rect x="0" y="0" width="160" height="120" rx="10" fill="rgba(168,216,185,0.4)"/>
    <path d="M14 100 L 60 50 L 92 80 L 132 30 L 146 30 L 146 110 L 14 110 Z" fill="rgba(91,168,214,0.5)"/>
    <circle cx="118" cy="36" r="10" fill="rgba(255,189,154,0.85)"/>
  </g>
  <g transform="translate(280 200)" opacity="0.95">
    <rect x="0" y="0" width="240" height="380" rx="20" fill="rgba(255,255,255,0.95)"/>
    <rect x="0" y="0" width="240" height="380" rx="20" fill="none" stroke="rgba(43,76,98,0.15)" stroke-width="2"/>
    <rect x="20" y="20" width="200" height="160" rx="10" fill="rgba(91,168,214,0.25)"/>
    <rect x="20" y="200" width="120" height="10" rx="5" fill="rgba(43,76,98,0.45)"/>
    <rect x="20" y="220" width="200" height="6" rx="3" fill="rgba(43,76,98,0.18)"/>
    <rect x="20" y="234" width="180" height="6" rx="3" fill="rgba(43,76,98,0.18)"/>
    <rect x="20" y="248" width="160" height="6" rx="3" fill="rgba(43,76,98,0.18)"/>
    <rect x="20" y="320" width="100" height="34" rx="6" fill="rgba(43,76,98,0.65)"/>
  </g>
</svg>
